<mxfile host="app.diagrams.net" modified="2021-01-16T06:59:46.209Z" agent="5.0 (Macintosh; Intel Mac OS X 10_15_6) AppleWebKit/537.36 (KHTML, like Gecko) Chrome/86.0.4240.193 Safari/537.36" etag="ipPtrVec43hW5npBb3SB" version="14.1.9" type="github">
  <diagram id="U7CqltvDjjWaMgs4gg0i" name="Page-1">
    <mxGraphModel dx="946" dy="536" grid="1" gridSize="10" guides="1" tooltips="1" connect="1" arrows="1" fold="1" page="1" pageScale="1" pageWidth="827" pageHeight="1169" math="0" shadow="0">
      <root>
        <mxCell id="0" />
        <mxCell id="1" parent="0" />
        <mxCell id="NUPK_zwCc0Xj8mf8KXuX-14" value="" style="shape=table;html=1;whiteSpace=wrap;startSize=0;container=1;collapsible=0;childLayout=tableLayout;" vertex="1" parent="1">
          <mxGeometry x="370" y="160" width="260" height="40" as="geometry" />
        </mxCell>
        <mxCell id="NUPK_zwCc0Xj8mf8KXuX-15" value="" style="shape=partialRectangle;html=1;whiteSpace=wrap;collapsible=0;dropTarget=0;pointerEvents=0;fillColor=none;top=0;left=0;bottom=0;right=0;points=[[0,0.5],[1,0.5]];portConstraint=eastwest;" vertex="1" parent="NUPK_zwCc0Xj8mf8KXuX-14">
          <mxGeometry width="260" height="40" as="geometry" />
        </mxCell>
        <mxCell id="NUPK_zwCc0Xj8mf8KXuX-16" value="r" style="shape=partialRectangle;html=1;whiteSpace=wrap;connectable=0;fillColor=none;top=0;left=0;bottom=0;right=0;overflow=hidden;" vertex="1" parent="NUPK_zwCc0Xj8mf8KXuX-15">
          <mxGeometry width="43" height="40" as="geometry" />
        </mxCell>
        <mxCell id="NUPK_zwCc0Xj8mf8KXuX-17" value="e" style="shape=partialRectangle;html=1;whiteSpace=wrap;connectable=0;fillColor=none;top=0;left=0;bottom=0;right=0;overflow=hidden;" vertex="1" parent="NUPK_zwCc0Xj8mf8KXuX-15">
          <mxGeometry x="43" width="44" height="40" as="geometry" />
        </mxCell>
        <mxCell id="NUPK_zwCc0Xj8mf8KXuX-18" value="d" style="shape=partialRectangle;html=1;whiteSpace=wrap;connectable=0;fillColor=none;top=0;left=0;bottom=0;right=0;overflow=hidden;" vertex="1" parent="NUPK_zwCc0Xj8mf8KXuX-15">
          <mxGeometry x="87" width="43" height="40" as="geometry" />
        </mxCell>
        <mxCell id="NUPK_zwCc0Xj8mf8KXuX-29" value="i" style="shape=partialRectangle;html=1;whiteSpace=wrap;connectable=0;fillColor=none;top=0;left=0;bottom=0;right=0;overflow=hidden;" vertex="1" parent="NUPK_zwCc0Xj8mf8KXuX-15">
          <mxGeometry x="130" width="43" height="40" as="geometry" />
        </mxCell>
        <mxCell id="NUPK_zwCc0Xj8mf8KXuX-32" value="s" style="shape=partialRectangle;html=1;whiteSpace=wrap;connectable=0;fillColor=none;top=0;left=0;bottom=0;right=0;overflow=hidden;" vertex="1" parent="NUPK_zwCc0Xj8mf8KXuX-15">
          <mxGeometry x="173" width="44" height="40" as="geometry" />
        </mxCell>
        <mxCell id="NUPK_zwCc0Xj8mf8KXuX-35" value="\0" style="shape=partialRectangle;html=1;whiteSpace=wrap;connectable=0;fillColor=none;top=0;left=0;bottom=0;right=0;overflow=hidden;" vertex="1" parent="NUPK_zwCc0Xj8mf8KXuX-15">
          <mxGeometry x="217" width="43" height="40" as="geometry" />
        </mxCell>
        <mxCell id="NUPK_zwCc0Xj8mf8KXuX-37" value="&lt;span&gt;sdshdr&lt;/span&gt;" style="rounded=0;whiteSpace=wrap;html=1;shadow=0;fillColor=#dae8fc;strokeColor=#6c8ebf;" vertex="1" parent="1">
          <mxGeometry x="270" y="40" width="60" height="40" as="geometry" />
        </mxCell>
        <mxCell id="NUPK_zwCc0Xj8mf8KXuX-38" value="&lt;span&gt;free&lt;/span&gt;&lt;br&gt;&lt;span&gt;0&lt;/span&gt;" style="rounded=0;whiteSpace=wrap;html=1;shadow=0;fillColor=#d5e8d4;strokeColor=#82b366;" vertex="1" parent="1">
          <mxGeometry x="270" y="80" width="60" height="40" as="geometry" />
        </mxCell>
        <mxCell id="NUPK_zwCc0Xj8mf8KXuX-39" value="&lt;span&gt;len&lt;/span&gt;&lt;br&gt;&lt;span&gt;5&lt;/span&gt;" style="rounded=0;whiteSpace=wrap;html=1;shadow=0;fillColor=#d5e8d4;strokeColor=#82b366;" vertex="1" parent="1">
          <mxGeometry x="270" y="120" width="60" height="40" as="geometry" />
        </mxCell>
        <mxCell id="NUPK_zwCc0Xj8mf8KXuX-41" style="edgeStyle=orthogonalEdgeStyle;rounded=0;orthogonalLoop=1;jettySize=auto;html=1;exitX=1;exitY=0.5;exitDx=0;exitDy=0;entryX=0;entryY=0.5;entryDx=0;entryDy=0;" edge="1" parent="1" source="NUPK_zwCc0Xj8mf8KXuX-40" target="NUPK_zwCc0Xj8mf8KXuX-15">
          <mxGeometry relative="1" as="geometry" />
        </mxCell>
        <mxCell id="NUPK_zwCc0Xj8mf8KXuX-40" value="&lt;span&gt;buf&lt;/span&gt;" style="rounded=0;whiteSpace=wrap;html=1;shadow=0;fillColor=#d5e8d4;strokeColor=#82b366;" vertex="1" parent="1">
          <mxGeometry x="270" y="160" width="60" height="40" as="geometry" />
        </mxCell>
      </root>
    </mxGraphModel>
  </diagram>
</mxfile>
